<svg xmlns="http://www.w3.org/2000/svg" xmlns:xlink="http://www.w3.org/1999/xlink" xml:space="preserve" version="1.1" x="0px" y="0px" viewBox="0 0 100 100"><path d="M80,45L85,45L85,50L80,50L80,45Z" stroke="none"/><path d="M80,35L85,35L85,40L80,40L80,35Z" stroke="none"/><path d="M80,25L85,25L85,30L80,30L80,25Z" stroke="none"/><path d="M70,25L75,25L75,30L70,30L70,25Z" stroke="none"/><path d="M70,35L75,35L75,40L70,40L70,35Z" stroke="none"/><path d="M75,40L80,40L80,45L75,45L75,40Z" stroke="none"/><path d="M65,50L70,50L70,55L65,55L65,50Z" stroke="none"/><path d="M65,40L70,40L70,45L65,45L65,40Z" stroke="none"/><path d="M70,45L75,45L75,50L70,50L70,45Z" stroke="none"/><path d="M60,30L65,30L65,40L60,40L60,30Z" stroke="none"/><path d="M60,20L65,20L65,25L60,25L60,20Z" stroke="none"/><path d="M50,25L55,25L55,30L50,30L50,25Z" stroke="none"/><path d="M40,25L45,25L45,30L40,30L40,25Z" stroke="none"/><path d="M50,35L55,35L55,45L50,45L50,35Z" stroke="none"/><path d="M40,35L45,35L45,45L40,45L40,35Z" stroke="none"/><path d="M35,50L35,55L40,55L40,45L30,45L30,50Z" stroke="none"/><path d="M25,40L30,40L30,45L25,45L25,40Z" stroke="none"/><path d="M20,45L25,45L25,50L20,50L20,45Z" stroke="none"/><path d="M10,45L15,45L15,50L10,50L10,45Z" stroke="none"/><path d="M15,35L20,35L20,45L15,45L15,35Z" stroke="none"/><path d="M20,30L25,30L25,35L20,35L20,30Z" stroke="none"/><path d="M15,25L20,25L20,30L15,30L15,25Z" stroke="none"/><path d="M30,20L35,20L35,25L30,25L30,20Z" stroke="none"/><path d="M30,30L35,30L35,40L30,40L30,30Z" stroke="none"/><path d="M85,50L85,60L80,60L80,50L75,50L75,55L70,55L70,60L75,60L75,65L70,65L70,70L65,70L65,65L70,65L70,60L65,60L65,55L60,55L60,50L65,50L65,45L55,45L55,60L60,60L60,65L55,65L55,60L50,60L50,45L45,45L45,55L40,55L40,60L45,60L45,65L40,65L40,60L35,60L35,55L30,55L30,50L25,50L25,60L30,60L30,65L25,65L25,60L20,60L20,50L15,50L15,55L10,55L10,60L15,60L15,65L10,65L10,90L90,90L90,50L85,50ZM25,75L20,75L20,70L25,70L25,75ZM40,75L35,75L35,70L40,70L40,75ZM55,75L50,75L50,70L55,70L55,75ZM85,70L80,70L80,65L85,65L85,70Z" stroke="none"/><path d="M85,40L90,40L90,45L85,45L85,40Z" stroke="none"/></svg>
